<?xml version='1.0' encoding='utf-8'?>
<svg xmlns:xlink="http://www.w3.org/1999/xlink" xmlns="http://www.w3.org/2000/svg" version="1.1" preserveAspectRatio="none" x="0px" y="0px" width="550px" height="400px" viewBox="0 0 550 400"> <defs> <radialGradient id="Gradient_1" gradientUnits="userSpaceOnUse" cx="0" cy="0" r="55.900000000000034" fx="0" fy="0" gradientTransform="matrix( 0.9999999999999994, 0, 0, 0.9999999999999994, 215.2,334.8) " spreadMethod="pad"> <stop offset="0%" stop-color="#CC9933"/> <stop offset="100%" stop-color="#000000"/> </radialGradient> <linearGradient id="Gradient_2" gradientUnits="userSpaceOnUse" x1="110.13749999999999" y1="33.05000000000001" x2="147.0625" y2="355.55" spreadMethod="pad"> <stop offset="0%" stop-color="#FFFF66"/> <stop offset="100%" stop-color="#FFFFFF"/> </linearGradient> <radialGradient id="Gradient_3" gradientUnits="userSpaceOnUse" cx="0" cy="0" r="53.650000000000034" fx="0" fy="0" gradientTransform="matrix( 0.9999999999999993, 0, 0, 0.9999999999999993, 225.95,332.45) " spreadMethod="pad"> <stop offset="0%" stop-color="#CC9933"/> <stop offset="100%" stop-color="#000000"/> </radialGradient> <radialGradient id="Gradient_4" gradientUnits="userSpaceOnUse" cx="0" cy="0" r="147.34999999999997" fx="0" fy="0" gradientTransform="matrix( 1.0000000000000002, 0, 0, 1.0000000000000002, 225.95,203.95) " spreadMethod="pad"> <stop offset="0%" stop-color="#FFFFFF"/> <stop offset="100%" stop-color="#000000"/> </radialGradient> <linearGradient id="Gradient_5" gradientUnits="userSpaceOnUse" x1="222.475" y1="169.65" x2="231.725" y2="169.65" spreadMethod="pad"> <stop offset="0%" stop-color="#FFFFFF"/> <stop offset="34.509803921568626%" stop-color="#000000"/> <stop offset="65.49019607843137%" stop-color="#000000"/> <stop offset="100%" stop-color="#FFFFFF"/> </linearGradient> <radialGradient id="Gradient_6" gradientUnits="userSpaceOnUse" cx="0" cy="0" r="9.849999999999994" fx="0" fy="0" gradientTransform="matrix( 1.0000000000000007, 0, 0, 1.0000000000000007, 228.25,141.75) " spreadMethod="pad"> <stop offset="0%" stop-color="#33FF66"/> <stop offset="100%" stop-color="#000000"/> </radialGradient> <radialGradient id="Gradient_7" gradientUnits="userSpaceOnUse" cx="0" cy="0" r="3.9499999999999886" fx="0" fy="0" gradientTransform="matrix( 1.000000000000003, 0, 0, 1.000000000000003, 219.5,144.75) " spreadMethod="pad"> <stop offset="0%" stop-color="#FFFF00"/> <stop offset="100%" stop-color="#000000" stop-opacity="0"/> </radialGradient> <radialGradient id="Gradient_8" gradientUnits="userSpaceOnUse" cx="0" cy="0" r="10.149999999999977" fx="0" fy="0" gradientTransform="matrix( 1.0000000000000022, 0, 0, 1.0000000000000022, 260,142.25) " spreadMethod="pad"> <stop offset="0%" stop-color="#33FF66"/> <stop offset="100%" stop-color="#000000"/> </radialGradient> <radialGradient id="Gradient_9" gradientUnits="userSpaceOnUse" cx="0" cy="0" r="4.150000000000006" fx="0" fy="0" gradientTransform="matrix( 0.9999999999999988, 0, 0, 0.9999999999999988, 250,142.5) " spreadMethod="pad"> <stop offset="0%" stop-color="#33FF66"/> <stop offset="100%" stop-color="#000000"/> </radialGradient> <radialGradient id="Gradient_10" gradientUnits="userSpaceOnUse" cx="0" cy="0" r="4.949999999999989" fx="0" fy="0" gradientTransform="matrix( 1.0000000000000022, 0, 0, 1.0000000000000022, 243.25,145.5) " spreadMethod="pad"> <stop offset="0%" stop-color="#FFFF00"/> <stop offset="100%" stop-color="#000000" stop-opacity="0"/> </radialGradient> <radialGradient id="Gradient_11" gradientUnits="userSpaceOnUse" cx="0" cy="0" r="1.3000000000000114" fx="0" fy="0" gradientTransform="matrix( 0.9999999999999913, 0, 0, 0.9999999999999913, 238.55,143.1) " spreadMethod="pad"> <stop offset="0%" stop-color="#CC9933"/> <stop offset="100%" stop-color="#000000"/> </radialGradient> <radialGradient id="Gradient_12" gradientUnits="userSpaceOnUse" cx="0" cy="0" r="4.699999999999989" fx="0" fy="0" gradientTransform="matrix( 1.0000000000000024, 0, 0, 1.0000000000000024, 233.75,142.5) " spreadMethod="pad"> <stop offset="0%" stop-color="#33FF66"/> <stop offset="100%" stop-color="#000000"/> </radialGradient> <radialGradient id="Gradient_13" gradientUnits="userSpaceOnUse" cx="0" cy="0" r="9.300000000000011" fx="0" fy="0" gradientTransform="matrix( 0.9999999999999988, 0, 0, 0.9999999999999988, 243.5,141.75) " spreadMethod="pad"> <stop offset="0%" stop-color="#33FF66"/> <stop offset="100%" stop-color="#000000"/> </radialGradient> <linearGradient id="Gradient_14" gradientUnits="userSpaceOnUse" x1="227" y1="114.80000000000001" x2="270.8" y2="71" spreadMethod="pad"> <stop offset="0%" stop-color="#00FF00"/> <stop offset="100%" stop-color="#000000"/> </linearGradient> <linearGradient id="Gradient_15" gradientUnits="userSpaceOnUse" x1="213.6" y1="117.15" x2="261.1" y2="69.65" spreadMethod="pad"> <stop offset="0%" stop-color="#00FF00"/> <stop offset="100%" stop-color="#000000"/> </linearGradient> <linearGradient id="Gradient_16" gradientUnits="userSpaceOnUse" x1="200.3875" y1="119.8125" x2="252.5125" y2="67.6875" spreadMethod="pad"> <stop offset="0%" stop-color="#00FF00"/> <stop offset="100%" stop-color="#000000"/> </linearGradient> <radialGradient id="Gradient_17" gradientUnits="userSpaceOnUse" cx="0" cy="0" r="4.800000000000011" fx="0" fy="0" gradientTransform="matrix( 0.9999999999999976, 0, 0, 0.9999999999999976, 295,145.75) " spreadMethod="pad"> <stop offset="0%" stop-color="#FFFF00"/> <stop offset="100%" stop-color="#000000" stop-opacity="0"/> </radialGradient> <radialGradient id="Gradient_18" gradientUnits="userSpaceOnUse" cx="0" cy="0" r="8.600000000000023" fx="0" fy="0" gradientTransform="matrix( 0.9999999999999974, 0, 0, 0.9999999999999974, 289.75,141) " spreadMethod="pad"> <stop offset="0%" stop-color="#33FF66"/> <stop offset="100%" stop-color="#000000"/> </radialGradient> <radialGradient id="Gradient_19" gradientUnits="userSpaceOnUse" cx="0" cy="0" r="5.850000000000023" fx="0" fy="0" gradientTransform="matrix( 0.9999999999999962, 0, 0, 0.9999999999999962, 296,144) " spreadMethod="pad"> <stop offset="0%" stop-color="#33FF66"/> <stop offset="100%" stop-color="#000000"/> </radialGradient> <radialGradient id="Gradient_20" gradientUnits="userSpaceOnUse" cx="0" cy="0" r="4.25" fx="0" fy="0" gradientTransform="matrix( 1, 0, 0, 1, 265.25,144.25) " spreadMethod="pad"> <stop offset="0%" stop-color="#FFFF00"/> <stop offset="100%" stop-color="#000000" stop-opacity="0"/> </radialGradient> <radialGradient id="Gradient_21" gradientUnits="userSpaceOnUse" cx="0" cy="0" r="3.8999999999999773" fx="0" fy="0" gradientTransform="matrix( 1.000000000000006, 0, 0, 1.000000000000006, 265.75,142.25) " spreadMethod="pad"> <stop offset="0%" stop-color="#33FF66"/> <stop offset="100%" stop-color="#000000"/> </radialGradient> <radialGradient id="Gradient_22" gradientUnits="userSpaceOnUse" cx="0" cy="0" r="9.449999999999989" fx="0" fy="0" gradientTransform="matrix( 1.0000000000000013, 0, 0, 1.0000000000000013, 275.25,141.75) " spreadMethod="pad"> <stop offset="0%" stop-color="#33FF66"/> <stop offset="100%" stop-color="#000000"/> </radialGradient> <linearGradient id="Gradient_23" gradientUnits="userSpaceOnUse" x1="240.72500000000002" y1="112.72500000000001" x2="280.375" y2="73.075" spreadMethod="pad"> <stop offset="0%" stop-color="#00FF00"/> <stop offset="100%" stop-color="#000000"/> </linearGradient> <radialGradient id="Gradient_24" gradientUnits="userSpaceOnUse" cx="0" cy="0" r="4.150000000000006" fx="0" fy="0" gradientTransform="matrix( 0.9999999999999988, 0, 0, 0.9999999999999988, 235,144.5) " spreadMethod="pad"> <stop offset="0%" stop-color="#FFFF00"/> <stop offset="100%" stop-color="#000000" stop-opacity="0"/> </radialGradient> <radialGradient id="Gradient_25" gradientUnits="userSpaceOnUse" cx="0" cy="0" r="9.900000000000006" fx="0" fy="0" gradientTransform="matrix( 0.9999999999999994, 0, 0, 0.9999999999999994, 196.5,142.25) " spreadMethod="pad"> <stop offset="0%" stop-color="#33FF66"/> <stop offset="100%" stop-color="#000000"/> </radialGradient> <radialGradient id="Gradient_26" gradientUnits="userSpaceOnUse" cx="0" cy="0" r="10.050000000000011" fx="0" fy="0" gradientTransform="matrix( 0.9999999999999989, 0, 0, 0.9999999999999989, 212.5,142.25) " spreadMethod="pad"> <stop offset="0%" stop-color="#33FF66"/> <stop offset="100%" stop-color="#000000"/> </radialGradient> <radialGradient id="Gradient_27" gradientUnits="userSpaceOnUse" cx="0" cy="0" r="4.199999999999989" fx="0" fy="0" gradientTransform="matrix( 1.0000000000000027, 0, 0, 1.0000000000000027, 203.25,145) " spreadMethod="pad"> <stop offset="0%" stop-color="#FFFF00"/> <stop offset="100%" stop-color="#000000" stop-opacity="0"/> </radialGradient> <radialGradient id="Gradient_28" gradientUnits="userSpaceOnUse" cx="0" cy="0" r="4.599999999999994" fx="0" fy="0" gradientTransform="matrix( 1.0000000000000013, 0, 0, 1.0000000000000013, 202.5,142.75) " spreadMethod="pad"> <stop offset="0%" stop-color="#33FF66"/> <stop offset="100%" stop-color="#000000"/> </radialGradient> <linearGradient id="Gradient_29" gradientUnits="userSpaceOnUse" x1="173.425" y1="124.425" x2="235.675" y2="62.175" spreadMethod="pad"> <stop offset="0%" stop-color="#00FF00"/> <stop offset="100%" stop-color="#000000"/> </linearGradient> <linearGradient id="Gradient_30" gradientUnits="userSpaceOnUse" x1="186.82500000000002" y1="122.025" x2="244.275" y2="64.57499999999999" spreadMethod="pad"> <stop offset="0%" stop-color="#00FF00"/> <stop offset="100%" stop-color="#000000"/> </linearGradient> <radialGradient id="Gradient_31" gradientUnits="userSpaceOnUse" cx="0" cy="0" r="10" fx="0" fy="0" gradientTransform="matrix( 1, 0, 0, 1, 181,141.75) " spreadMethod="pad"> <stop offset="0%" stop-color="#33FF66"/> <stop offset="100%" stop-color="#000000"/> </radialGradient> <radialGradient id="Gradient_32" gradientUnits="userSpaceOnUse" cx="0" cy="0" r="3.8499999999999943" fx="0" fy="0" gradientTransform="matrix( 1.0000000000000016, 0, 0, 1.0000000000000016, 172.25,144.75) " spreadMethod="pad"> <stop offset="0%" stop-color="#FFFF00"/> <stop offset="100%" stop-color="#000000" stop-opacity="0"/> </radialGradient> <radialGradient id="Gradient_33" gradientUnits="userSpaceOnUse" cx="0" cy="0" r="4.599999999999994" fx="0" fy="0" gradientTransform="matrix( 1.0000000000000013, 0, 0, 1.0000000000000013, 171,142.5) " spreadMethod="pad"> <stop offset="0%" stop-color="#33FF66"/> <stop offset="100%" stop-color="#000000"/> </radialGradient> <radialGradient id="Gradient_34" gradientUnits="userSpaceOnUse" cx="0" cy="0" r="8.900000000000006" fx="0" fy="0" gradientTransform="matrix( 0.9999999999999993, 0, 0, 0.9999999999999993, 164,141.75) " spreadMethod="pad"> <stop offset="0%" stop-color="#33FF66"/> <stop offset="100%" stop-color="#000000"/> </radialGradient> <linearGradient id="Gradient_35" gradientUnits="userSpaceOnUse" x1="159.5625" y1="126.2875" x2="227.1375" y2="58.7125" spreadMethod="pad"> <stop offset="0%" stop-color="#00FF00"/> <stop offset="100%" stop-color="#000000"/> </linearGradient> <linearGradient id="Gradient_36" gradientUnits="userSpaceOnUse" x1="145.9875" y1="128.6125" x2="218.3125" y2="56.2875" spreadMethod="pad"> <stop offset="0%" stop-color="#00FF00"/> <stop offset="100%" stop-color="#000000"/> </linearGradient> <radialGradient id="Gradient_37" gradientUnits="userSpaceOnUse" cx="0" cy="0" r="5.699999999999989" fx="0" fy="0" gradientTransform="matrix( 1.0000000000000022, 0, 0, 1.0000000000000022, 158,143.75) " spreadMethod="pad"> <stop offset="0%" stop-color="#33FF66"/> <stop offset="100%" stop-color="#000000"/> </radialGradient> <radialGradient id="Gradient_38" gradientUnits="userSpaceOnUse" cx="0" cy="0" r="4.699999999999989" fx="0" fy="0" gradientTransform="matrix( 1.0000000000000024, 0, 0, 1.0000000000000024, 164.5,145.75) " spreadMethod="pad"> <stop offset="0%" stop-color="#FFFF00"/> <stop offset="100%" stop-color="#000000" stop-opacity="0"/> </radialGradient> <radialGradient id="Gradient_39" gradientUnits="userSpaceOnUse" cx="0" cy="0" r="5.449999999999989" fx="0" fy="0" gradientTransform="matrix( 1.0000000000000022, 0, 0, 1.0000000000000022, 196.25,145) " spreadMethod="pad"> <stop offset="0%" stop-color="#FFFF00"/> <stop offset="100%" stop-color="#000000" stop-opacity="0"/> </radialGradient> <radialGradient id="Gradient_40" gradientUnits="userSpaceOnUse" cx="0" cy="0" r="4.25" fx="0" fy="0" gradientTransform="matrix( 1, 0, 0, 1, 187,142) " spreadMethod="pad"> <stop offset="0%" stop-color="#33FF66"/> <stop offset="100%" stop-color="#000000"/> </radialGradient> <radialGradient id="Gradient_41" gradientUnits="userSpaceOnUse" cx="0" cy="0" r="4.900000000000006" fx="0" fy="0" gradientTransform="matrix( 0.9999999999999989, 0, 0, 0.9999999999999989, 219,142.75) " spreadMethod="pad"> <stop offset="0%" stop-color="#33FF66"/> <stop offset="100%" stop-color="#000000"/> </radialGradient> <radialGradient id="Gradient_42" gradientUnits="userSpaceOnUse" cx="0" cy="0" r="4.699999999999989" fx="0" fy="0" gradientTransform="matrix( 1.0000000000000024, 0, 0, 1.0000000000000024, 259,145.75) " spreadMethod="pad"> <stop offset="0%" stop-color="#FFFF00"/> <stop offset="100%" stop-color="#000000" stop-opacity="0"/> </radialGradient> <radialGradient id="Gradient_43" gradientUnits="userSpaceOnUse" cx="0" cy="0" r="4.600000000000023" fx="0" fy="0" gradientTransform="matrix( 0.9999999999999952, 0, 0, 0.9999999999999952, 283,142.5) " spreadMethod="pad"> <stop offset="0%" stop-color="#33FF66"/> <stop offset="100%" stop-color="#000000"/> </radialGradient> <radialGradient id="Gradient_44" gradientUnits="userSpaceOnUse" cx="0" cy="0" r="4.449999999999989" fx="0" fy="0" gradientTransform="matrix( 1.0000000000000027, 0, 0, 1.0000000000000027, 290.75,146) " spreadMethod="pad"> <stop offset="0%" stop-color="#FFFF00"/> <stop offset="100%" stop-color="#000000" stop-opacity="0"/> </radialGradient> <linearGradient id="Gradient_45" gradientUnits="userSpaceOnUse" x1="254.075" y1="110.275" x2="289.72499999999997" y2="74.625" spreadMethod="pad"> <stop offset="0%" stop-color="#00FF00"/> <stop offset="100%" stop-color="#000000"/> </linearGradient> <linearGradient id="Gradient_46" gradientUnits="userSpaceOnUse" x1="174.0125" y1="67.6875" x2="197.6875" y2="44.0125" spreadMethod="pad"> <stop offset="0%" stop-color="#00FF00"/> <stop offset="100%" stop-color="#000000"/> </linearGradient> <linearGradient id="Gradient_47" gradientUnits="userSpaceOnUse" x1="140.775" y1="123.32499999999999" x2="210.725" y2="53.37499999999999" spreadMethod="pad"> <stop offset="0%" stop-color="#00FF00"/> <stop offset="100%" stop-color="#000000"/> </linearGradient> <radialGradient id="Gradient_48" gradientUnits="userSpaceOnUse" cx="0" cy="0" r="2.8499999999999943" fx="0" fy="0" gradientTransform="matrix( 1.0000000000000022, 0, 0, 1.0000000000000022, 239.7,163.95) " spreadMethod="pad"> <stop offset="0%" stop-color="#FFFFFF"/> <stop offset="100%" stop-color="#000000"/> </radialGradient> <radialGradient id="Gradient_49" gradientUnits="userSpaceOnUse" cx="0" cy="0" r="3.5999999999999943" fx="0" fy="0" gradientTransform="matrix( 1.0000000000000018, 0, 0, 1.0000000000000018, 238.3,164.6) " spreadMethod="pad"> <stop offset="0%" stop-color="#FFFFFF"/> <stop offset="100%" stop-color="#000000"/> </radialGradient> <radialGradient id="Gradient_50" gradientUnits="userSpaceOnUse" cx="0" cy="0" r="3.9000000000000057" fx="0" fy="0" gradientTransform="matrix( 0.9999999999999987, 0, 0, 0.9999999999999987, 241.05,164.1) " spreadMethod="pad"> <stop offset="0%" stop-color="#FFFFFF"/> <stop offset="100%" stop-color="#000000"/> </radialGradient> <radialGradient id="Gradient_51" gradientUnits="userSpaceOnUse" cx="0" cy="0" r="2.4000000000000057" fx="0" fy="0" gradientTransform="matrix( 0.9999999999999976, 0, 0, 0.9999999999999976, 239.55,156.6) " spreadMethod="pad"> <stop offset="0%" stop-color="#CC9933"/> <stop offset="100%" stop-color="#000000"/> </radialGradient> <radialGradient id="Gradient_52" gradientUnits="userSpaceOnUse" cx="0" cy="0" r="4.400000000000006" fx="0" fy="0" gradientTransform="matrix( 0.9999999999999988, 0, 0, 0.9999999999999988, 237.2,164.1) " spreadMethod="pad"> <stop offset="0%" stop-color="#FFFFFF"/> <stop offset="100%" stop-color="#000000"/> </radialGradient> <radialGradient id="Gradient_53" gradientUnits="userSpaceOnUse" cx="0" cy="0" r="2.6999999999999886" fx="0" fy="0" gradientTransform="matrix( 1.0000000000000042, 0, 0, 1.0000000000000042, 239.45,159.35) " spreadMethod="pad"> <stop offset="0%" stop-color="#FFFFFF"/> <stop offset="100%" stop-color="#000000"/> </radialGradient> <radialGradient id="Gradient_54" gradientUnits="userSpaceOnUse" cx="0" cy="0" r="1.9499999999999886" fx="0" fy="0" gradientTransform="matrix( 1.000000000000006, 0, 0, 1.000000000000006, 239.05,153.6) " spreadMethod="pad"> <stop offset="0%" stop-color="#CC9933"/> <stop offset="100%" stop-color="#000000"/> </radialGradient> <radialGradient id="Gradient_55" gradientUnits="userSpaceOnUse" cx="0" cy="0" r="2.25" fx="0" fy="0" gradientTransform="matrix( 1, 0, 0, 1, 239.3,151.1) " spreadMethod="pad"> <stop offset="0%" stop-color="#CC9933"/> <stop offset="100%" stop-color="#000000"/> </radialGradient> <radialGradient id="Gradient_56" gradientUnits="userSpaceOnUse" cx="0" cy="0" r="2" fx="0" fy="0" gradientTransform="matrix( 1, 0, 0, 1, 239.2,148.1) " spreadMethod="pad"> <stop offset="0%" stop-color="#CC9933"/> <stop offset="100%" stop-color="#000000"/> </radialGradient> <radialGradient id="Gradient_57" gradientUnits="userSpaceOnUse" cx="0" cy="0" r="2.1500000000000057" fx="0" fy="0" gradientTransform="matrix( 0.9999999999999974, 0, 0, 0.9999999999999974, 239.3,145.35) " spreadMethod="pad"> <stop offset="0%" stop-color="#CC9933"/> <stop offset="100%" stop-color="#000000"/> </radialGradient> <radialGradient id="Gradient_58" gradientUnits="userSpaceOnUse" cx="0" cy="0" r="5.5" fx="0" fy="0" gradientTransform="matrix( 1.0000000000000002, 0, 0, 1.0000000000000002, 159.25,145) " spreadMethod="pad"> <stop offset="0%" stop-color="#FFFF00"/> <stop offset="100%" stop-color="#000000" stop-opacity="0"/> </radialGradient> <radialGradient id="Gradient_59" gradientUnits="userSpaceOnUse" cx="0" cy="0" r="4.399999999999977" fx="0" fy="0" gradientTransform="matrix( 1.0000000000000053, 0, 0, 1.0000000000000053, 282.75,144.25) " spreadMethod="pad"> <stop offset="0%" stop-color="#FFFF00"/> <stop offset="100%" stop-color="#000000" stop-opacity="0"/> </radialGradient> <radialGradient id="Gradient_60" gradientUnits="userSpaceOnUse" cx="0" cy="0" r="5.199999999999989" fx="0" fy="0" gradientTransform="matrix( 1.0000000000000022, 0, 0, 1.0000000000000022, 211.75,145.25) " spreadMethod="pad"> <stop offset="0%" stop-color="#FFFF00"/> <stop offset="100%" stop-color="#000000" stop-opacity="0"/> </radialGradient> <linearGradient id="Gradient_61" gradientUnits="userSpaceOnUse" x1="263.65000000000003" y1="62.550000000000004" x2="275.05" y2="51.15" spreadMethod="pad"> <stop offset="0%" stop-color="#00FF00"/> <stop offset="100%" stop-color="#000000"/> </linearGradient> <linearGradient id="Gradient_62" gradientUnits="userSpaceOnUse" x1="263.4" y1="103.64999999999999" x2="293.5" y2="73.55" spreadMethod="pad"> <stop offset="0%" stop-color="#00FF00"/> <stop offset="100%" stop-color="#000000"/> </linearGradient> <radialGradient id="Gradient_63" gradientUnits="userSpaceOnUse" cx="0" cy="0" r="5" fx="0" fy="0" gradientTransform="matrix( 1, 0, 0, 1, 180.5,145.5) " spreadMethod="pad"> <stop offset="0%" stop-color="#FFFF00"/> <stop offset="100%" stop-color="#000000" stop-opacity="0"/> </radialGradient> <radialGradient id="Gradient_64" gradientUnits="userSpaceOnUse" cx="0" cy="0" r="4.300000000000011" fx="0" fy="0" gradientTransform="matrix( 0.9999999999999974, 0, 0, 0.9999999999999974, 188,144.25) " spreadMethod="pad"> <stop offset="0%" stop-color="#FFFF00"/> <stop offset="100%" stop-color="#000000" stop-opacity="0"/> </radialGradient> <radialGradient id="Gradient_65" gradientUnits="userSpaceOnUse" cx="0" cy="0" r="4.25" fx="0" fy="0" gradientTransform="matrix( 1, 0, 0, 1, 249.5,144.25) " spreadMethod="pad"> <stop offset="0%" stop-color="#FFFF00"/> <stop offset="100%" stop-color="#000000" stop-opacity="0"/> </radialGradient> <radialGradient id="Gradient_66" gradientUnits="userSpaceOnUse" cx="0" cy="0" r="5.199999999999989" fx="0" fy="0" gradientTransform="matrix( 1.0000000000000022, 0, 0, 1.0000000000000022, 275,145.25) " spreadMethod="pad"> <stop offset="0%" stop-color="#FFFF00"/> <stop offset="100%" stop-color="#000000" stop-opacity="0"/> </radialGradient> <radialGradient id="Gradient_67" gradientUnits="userSpaceOnUse" cx="0" cy="0" r="5.25" fx="0" fy="0" gradientTransform="matrix( 1, 0, 0, 1, 228,145.25) " spreadMethod="pad"> <stop offset="0%" stop-color="#FFFF00"/> <stop offset="100%" stop-color="#000000" stop-opacity="0"/> </radialGradient> <filter id="Filter_1" x="-20%" y="-20%" width="140%" height="140%" color-interpolation-filters="sRGB"> <feColorMatrix in="SourceGraphic" type="matrix" values="1 0 0 0 0 0 1 0 0 0 0 0 1 0 0 0 0 0 0.76 0" result="result1"/> </filter> <g id="Layer3_0_FILL"> <path fill="url(#Gradient_1)" stroke="none" d=" M 176.15 362.8 Q 192.35 374.4 215.2 374.4 238.05 374.4 254.2 362.8 270.4 351.2 270.4 334.8 270.4 318.4 254.2 306.8 238.05 295.2 215.2 295.2 192.35 295.2 176.15 306.8 160 318.4 160 334.8 160 351.2 176.15 362.8 Z"/> </g> <g id="Symbol_1_0_Layer0_0_FILL"> <path fill="url(#Gradient_2)" stroke="none" d=" M 0 274.8 Q 147.15 380 275.6 275.2 258.6 174.65 200.9 68.9 136.35 -68.9 71.75 68.9 26.25 168 0 274.8 Z"/> </g> <g id="Layer2_0_FILL"> <path fill="url(#Gradient_3)" stroke="none" d=" M 190.15 306.5 Q 174.8 317.4 174.8 332.8 174.8 348.2 190.15 359.1 194.8978515625 362.471484375 200.25 364.8 212.212109375 370 227.2 370 242.187890625 370 254.15 364.8 259.5021484375 362.471484375 264.25 359.1 279.6 348.2 279.6 332.8 279.6 317.4 264.25 306.5 248.9 295.6 227.2 295.6 205.5 295.6 190.15 306.5 Z"/> </g> <g id="Layer1_0_FILL"> <path fill="url(#Gradient_4)" stroke="none" d=" M 231.2 196.55 Q 228.9857421875 192.374609375 226.65 188.35 224.07890625 192.780078125 221.7 197.4 221.06640625 198.6173828125 220.45 199.85 214.25 212.15 209.15 225.85 204.7 237.7 201.05 250.65 198 261.4 195.55 272.85 192.65 286.25 190.5 300.7 186.8 325.55 198.05 337.55 198.6 338.1 199.1 338.65 202.9 342.45 207.15 345.05 216.1 350.5 227.15 350.5 237.55 350.5 246.3 345.05 250.4 342.45 254.2 338.65 254.7 338.1 255.25 337.55 266.5 325.55 262.8 300.7 260.65 286.25 257.8 272.85 255.35 261.4 252.3 250.65 248.65 237.7 244.25 225.85 239.1 212.15 232.9 199.85 232.0560546875 198.190234375 231.2 196.55 Z"/> <path fill="url(#Gradient_5)" stroke="none" d=" M 221.7 143.1 L 221.7 145.4 Q 221.75 145.6404296875 221.75 145.9 221.75 146.1740234375 221.7 146.4 L 221.7 197.4 Q 224.07890625 192.780078125 226.65 188.35 228.9857421875 192.374609375 231.2 196.55 L 231.2 142.8 Q 229.605078125 144.1958984375 228 144.55 227.25 144.7 226.5 144.65 224.4484375 144.4859375 222.4 142.6 222.05 142.31015625 221.7 141.95 L 221.7 143.1 Z"/> <path fill="url(#Gradient_6)" stroke="none" d=" M 219 138.4 Q 220.3490234375 140.5404296875 221.7 141.95 222.05 142.31015625 222.4 142.6 224.4484375 144.4859375 226.5 144.65 226.9 144.5 227.4 144.5 227.7 144.5 228 144.55 229.605078125 144.1958984375 231.2 142.8 231.3251953125 142.690625 231.45 142.55 233.1306640625 141.0513671875 234.8 138.4 L 219 138.4 Z"/> <path fill="url(#Gradient_7)" stroke="none" d=" M 221.7 145.4 Q 221.576953125 144.8125 221.15 144.35 220.65 143.9 220.1 143.75 219.85 143.75 219.6 143.75 219.15 143.75 218.8 143.85 218.35 144.05 218 144.35 217.4 145 217.4 145.9 217.4 146.85 218 147.5 218.65 148.1 219.6 148.1 220.5 148.1 221.15 147.5 221.576953125 147.0375 221.7 146.4 L 221.7 145.4 Z"/> <path fill="url(#Gradient_8)" stroke="none" d=" M 250.6 138.4 Q 250.77734375 138.6814453125 250.95 138.95 251.9994140625 140.53828125 253.05 141.65 255.575390625 144.448046875 258.1 144.65 258.5 144.5 259 144.5 259.3 144.5 259.6 144.55 261.0556640625 144.22890625 262.5 143.05 264.28046875 141.630859375 266.05 138.95 266.2228515625 138.6814453125 266.4 138.4 L 250.6 138.4 Z"/> <path fill="url(#Gradient_9)" stroke="none" d=" M 250.6 138.4 Q 250.42265625 138.681640625 250.25 138.95 249.79765625 139.6287109375 249.35 140.2 248.03046875 141.9904296875 246.7 143.05 247.6607421875 143.5703125 248.6 143.65 248.95 143.55 249.4 143.55 249.65 143.55 249.9 143.55 251.47421875 143.229296875 253.05 141.65 251.9994140625 140.53828125 250.95 138.95 250.77734375 138.6814453125 250.6 138.4 Z"/> <path fill="url(#Gradient_10)" stroke="none" d=" M 242.3 144.65 Q 241.75 144.85 241.35 145.25 240.6 146 240.6 147.1 240.6 148.2 241.35 148.95 242.1 149.7 243.2 149.7 244.3 149.7 245.05 148.95 245.8 148.2 245.8 147.1 245.8 146 245.05 145.25 244.5 144.7 243.8 144.55 243.05 144.7 242.3 144.65 Z"/> <path fill="url(#Gradient_11)" stroke="none" d=" M 237.7 142.4 Q 237.7 142.55625 237.7 142.7 237.813671875 143.063671875 238.1 143.35 238.5 143.75 239.1 143.75 239.3501953125 143.75 239.55 143.65 238.795703125 143.196875 238 142.45 237.8703125 142.3296875 237.7 142.15 237.7 142.2833984375 237.7 142.4 Z"/> <path fill="url(#Gradient_12)" stroke="none" d=" M 237.7 142.15 Q 236.259765625 140.716015625 234.8 138.4 233.1306640625 141.0513671875 231.45 142.55 232.8919921875 143.6806640625 234.3 143.8 234.65 143.7 235.1 143.7 235.35 143.7 235.6 143.7 236.6681640625 143.482421875 237.7 142.7 237.7 142.55625 237.7 142.4 237.7 142.2833984375 237.7 142.15 Z"/> <path fill="url(#Gradient_13)" stroke="none" d=" M 234.8 138.4 Q 236.259765625 140.716015625 237.7 142.15 237.8703125 142.3296875 238 142.45 238.795703125 143.196875 239.55 143.65 240.9337890625 144.540625 242.3 144.65 242.7 144.5 243.2 144.5 243.5 144.5 243.8 144.55 245.25546875 144.22890625 246.7 143.05 248.03046875 141.9904296875 249.35 140.2 249.79765625 139.6287109375 250.25 138.95 250.42265625 138.681640625 250.6 138.4 L 234.8 138.4 Z"/> <path fill="url(#Gradient_14)" stroke="none" d=" M 241.25 42.25 Q 239.0455078125 41.36484375 236.95 42.45 236.066796875 42.9037109375 235.2 43.7 L 250.6 138.4 266.4 138.4 243.1 43.25 Q 242.1740234375 42.5970703125 241.25 42.25 Z"/> <path fill="url(#Gradient_15)" stroke="none" d=" M 230.35 42.55 Q 229.5681640625 43.0048828125 228.75 43.8 L 234.8 138.4 250.6 138.4 235.2 43.7 Q 234.50546875 42.9451171875 233.75 42.5 232.1349609375 41.584375 230.35 42.55 Z"/> <path fill="url(#Gradient_16)" stroke="none" d=" M 227.3 42.55 Q 227.2373046875 42.5126953125 227.15 42.45 226.648046875 42.1556640625 225.5 42.45 225.383984375 42.4876953125 225.25 42.5 224.294921875 42.8712890625 223.5 43.7 L 219 138.4 234.8 138.4 228.75 43.8 Q 227.8185546875 42.9130859375 227.3 42.55 Z"/> <path fill="url(#Gradient_17)" stroke="none" d=" M 292.65 145.25 Q 292.5982421875 145.3017578125 292.55 145.35 293.2 146.0759765625 293.2 147.1 293.2 148.1240234375 292.55 148.85 292.5982421875 148.8982421875 292.65 148.95 293.4 149.7 294.5 149.7 295.6 149.7 296.35 148.95 297.1 148.2 297.1 147.1 297.1 146 296.35 145.25 295.8 144.7 295.1 144.55 294.35 144.7 293.6 144.65 293.05 144.85 292.65 145.25 Z"/> <path fill="url(#Gradient_18)" stroke="none" d=" M 291.2 144.55 Q 291.7728515625 144.4236328125 292.35 144.15 295.1306640625 142.909375 297.9 138.5 297.9203125 138.4671875 297.9 138.4 L 282.2 138.4 Q 283.81484375 140.962109375 285.4 142.45 287.56484375 144.4791015625 289.7 144.65 290.1 144.5 290.6 144.5 290.9 144.5 291.2 144.55 Z"/> <path fill="url(#Gradient_19)" stroke="none" d=" M 292.35 144.15 Q 292.8984375 144.5939453125 293.6 144.65 294 144.5 294.5 144.5 294.8 144.5 295.1 144.55 297.5052734375 144.0193359375 297.9 138.5 295.1306640625 142.909375 292.35 144.15 Z"/> <path fill="url(#Gradient_20)" stroke="none" d=" M 265.7 143.55 Q 265.45 143.55 265.2 143.55 264.75 143.55 264.4 143.65 263.95 143.85 263.6 144.15 263 144.8 263 145.7 263 146.65 263.6 147.3 264.25 147.9 265.2 147.9 266.1 147.9 266.75 147.3 267.35 146.65 267.35 145.7 267.35 144.8 266.75 144.15 266.25 143.7 265.7 143.55 Z"/> <path fill="url(#Gradient_21)" stroke="none" d=" M 266.95 139.25 Q 266.8513671875 139.1017578125 266.75 138.95 266.5763671875 138.6798828125 266.4 138.4 266.2228515625 138.6814453125 266.05 138.95 264.28046875 141.630859375 262.5 143.05 263.4611328125 143.5705078125 264.4 143.65 264.75 143.55 265.2 143.55 265.45 143.55 265.7 143.55 267.273828125 143.2294921875 268.85 141.65 267.898828125 140.6486328125 266.95 139.25 Z"/> <path fill="url(#Gradient_22)" stroke="none" d=" M 266.75 138.95 Q 266.8513671875 139.1017578125 266.95 139.25 267.898828125 140.6486328125 268.85 141.65 271.373828125 144.448046875 273.9 144.65 274.3 144.5 274.8 144.5 275.1 144.5 275.4 144.55 277.1306640625 144.1681640625 278.85 142.55 280.5306640625 141.0513671875 282.2 138.4 L 266.4 138.4 Q 266.5763671875 138.6798828125 266.75 138.95 Z"/> <path fill="url(#Gradient_23)" stroke="none" d=" M 247.95 41.7 Q 246.3115234375 41.2958984375 244.85 42 243.9333984375 42.420703125 243.1 43.25 L 266.4 138.4 282.2 138.4 249.9 42.55 Q 248.905859375 41.9564453125 247.95 41.7 Z"/> <path fill="url(#Gradient_24)" stroke="none" d=" M 236.65 144.3 Q 236.15 143.85 235.6 143.7 235.35 143.7 235.1 143.7 234.65 143.7 234.3 143.8 233.85 144 233.5 144.3 232.9 144.95 232.9 145.85 232.9 146.8 233.5 147.45 234.15 148.05 235.1 148.05 236 148.05 236.65 147.45 237.25 146.8 237.25 145.85 237.25 144.95 236.65 144.3 Z"/> <path fill="url(#Gradient_25)" stroke="none" d=" M 187.4 138.4 Q 189.0982421875 141.09453125 190.8 142.6 192.8482421875 144.4859375 194.9 144.65 195.3 144.5 195.8 144.5 196.1 144.5 196.4 144.55 197.9826171875 144.2009765625 199.55 142.85 201.3826171875 141.2865234375 203.2 138.4 L 187.4 138.4 Z"/> <path fill="url(#Gradient_26)" stroke="none" d=" M 210.7 144.65 Q 211.1 144.5 211.6 144.5 211.9 144.5 212.2 144.55 213.9849609375 144.15625 215.75 142.45 217.3849609375 140.9650390625 219 138.4 L 203.2 138.4 Q 204.9578125 141.1890625 206.7 142.7 208.7078125 144.490625 210.7 144.65 Z"/> <path fill="url(#Gradient_27)" stroke="none" d=" M 203.5 144.2 Q 203.05 144.2 202.7 144.3 202.25 144.5 201.9 144.8 201.3 145.45 201.3 146.35 201.3 147.3 201.9 147.95 202.55 148.55 203.5 148.55 204.4 148.55 205.05 147.95 205.65 147.3 205.65 146.35 205.65 145.45 205.05 144.8 204.55 144.35 204 144.2 203.75 144.2 203.5 144.2 Z"/> <path fill="url(#Gradient_28)" stroke="none" d=" M 202.7 144.3 Q 203.05 144.2 203.5 144.2 203.75 144.2 204 144.2 205.3578125 143.9234375 206.7 142.7 204.9578125 141.1890625 203.2 138.4 201.3826171875 141.2865234375 199.55 142.85 201.146484375 144.168359375 202.7 144.3 Z"/> <path fill="url(#Gradient_29)" stroke="none" d=" M 215 42.05 Q 213.8513671875 41.5578125 212.8 41.85 212.0255859375 42.1357421875 211.3 42.9 L 187.4 138.4 203.2 138.4 216.95 43.35 Q 215.9359375 42.4482421875 215 42.05 Z"/> <path fill="url(#Gradient_30)" stroke="none" d=" M 221 42.4 Q 220.4525390625 42.2931640625 219.85 42.35 218.4849609375 42.462109375 216.95 43.35 L 203.2 138.4 219 138.4 223.5 43.7 Q 222.35703125 42.6384765625 221 42.4 Z"/> <path fill="url(#Gradient_31)" stroke="none" d=" M 179.1 144.65 Q 179.5 144.5 180 144.5 180.3 144.5 180.6 144.55 182.4732421875 144.13671875 184.35 142.3 185.8732421875 140.8248046875 187.4 138.4 L 171.6 138.4 Q 173.1716796875 140.89375 174.75 142.4 176.9216796875 144.47578125 179.1 144.65 Z"/> <path fill="url(#Gradient_32)" stroke="none" d=" M 171.9 143.55 Q 171.45 143.55 171.1 143.65 170.65 143.85 170.3 144.15 169.7 144.8 169.7 145.7 169.7 146.65 170.3 147.3 170.95 147.9 171.9 147.9 172.8 147.9 173.45 147.3 174.05 146.65 174.05 145.7 174.05 144.8 173.45 144.15 172.95 143.7 172.4 143.55 172.15 143.55 171.9 143.55 Z"/> <path fill="url(#Gradient_33)" stroke="none" d=" M 168.35 142.5 Q 169.7359375 143.534375 171.1 143.65 171.45 143.55 171.9 143.55 172.15 143.55 172.4 143.55 173.5716796875 143.311328125 174.75 142.4 173.1716796875 140.89375 171.6 138.4 169.9751953125 140.9806640625 168.35 142.5 Z"/> <path fill="url(#Gradient_34)" stroke="none" d=" M 163.3 144.65 Q 163.7 144.5 164.2 144.5 164.5 144.5 164.8 144.55 166.5751953125 144.1583984375 168.35 142.5 169.9751953125 140.9806640625 171.6 138.4 L 155.75 138.4 Q 155.766796875 138.4498046875 155.75 138.5 158.5953125 142.8013671875 161.3 144.1 162.31484375 144.57109375 163.3 144.65 Z"/> <path fill="url(#Gradient_35)" stroke="none" d=" M 209.75 41.6 Q 208.173828125 40.7314453125 206.1 41.2 205.0591796875 41.4509765625 203.85 42.05 L 171.6 138.4 187.4 138.4 211.3 42.9 Q 210.595703125 42.0599609375 209.75 41.6 Z"/> <path fill="url(#Gradient_36)" stroke="none" d=" M 203.85 42.05 Q 203.362109375 41.272265625 202.8 40.75 202.203125 40.2626953125 201.55 40.05 L 200.1 40.05 Q 199.76640625 40.1544921875 199.4 40.3 198.758203125 40.6134765625 198.05 41.2 L 155.75 138.25 Q 155.753515625 138.3373046875 155.75 138.4 L 171.6 138.4 203.85 42.05 Z"/> <path fill="url(#Gradient_37)" stroke="none" d=" M 159.8 144.5 Q 160.1 144.5 160.4 144.55 160.9099609375 144.4375 161.3 144.1 158.5953125 142.8013671875 155.75 138.5 156.145703125 144.4296875 158.9 144.65 159.3 144.5 159.8 144.5 Z"/> <path fill="url(#Gradient_38)" stroke="none" d=" M 166.05 145.25 Q 165.5 144.7 164.8 144.55 164.05 144.7 163.3 144.65 162.75 144.85 162.35 145.25 162.14765625 145.45234375 162 145.65 161.6 146.296875 161.6 147.1 161.6 147.903125 162 148.5 162.14765625 148.74765625 162.35 148.95 163.1 149.7 164.2 149.7 165.3 149.7 166.05 148.95 166.8 148.2 166.8 147.1 166.8 146 166.05 145.25 Z"/> <path fill="url(#Gradient_39)" stroke="none" d=" M 194.9 144.65 Q 194.35 144.85 193.95 145.25 193.2 146 193.2 147.1 193.2 148.2 193.95 148.95 194.7 149.7 195.8 149.7 196.9 149.7 197.65 148.95 198.4 148.2 198.4 147.1 198.4 146 197.65 145.25 197.1 144.7 196.4 144.55 195.65 144.7 194.9 144.65 Z"/> <path fill="url(#Gradient_40)" stroke="none" d=" M 188.7 143.6 Q 189.7482421875 143.3865234375 190.8 142.6 189.0982421875 141.09453125 187.4 138.4 185.8732421875 140.8248046875 184.35 142.3 185.8865234375 143.5716796875 187.4 143.7 187.75 143.6 188.2 143.6 188.45 143.6 188.7 143.6 Z"/> <path fill="url(#Gradient_41)" stroke="none" d=" M 221.7 141.95 Q 220.3490234375 140.5404296875 219 138.4 217.3849609375 140.9650390625 215.75 142.45 217.298046875 143.72265625 218.8 143.85 219.15 143.75 219.6 143.75 219.85 143.75 220.1 143.75 220.89921875 143.587109375 221.7 143.1 L 221.7 141.95 Z"/> <path fill="url(#Gradient_42)" stroke="none" d=" M 258.1 144.65 Q 257.55 144.85 257.15 145.25 256.4 146 256.4 147.1 256.4 148.2 257.15 148.95 257.9 149.7 259 149.7 260.1 149.7 260.85 148.95 261.6 148.2 261.6 147.1 261.6 146 260.85 145.25 260.3 144.7 259.6 144.55 258.85 144.7 258.1 144.65 Z"/> <path fill="url(#Gradient_43)" stroke="none" d=" M 282.5 143.7 Q 282.75 143.7 283 143.7 284.21484375 143.4525390625 285.4 142.45 283.81484375 140.962109375 282.2 138.4 280.5306640625 141.0513671875 278.85 142.55 280.2919921875 143.6806640625 281.7 143.8 282.05 143.7 282.5 143.7 Z"/> <path fill="url(#Gradient_44)" stroke="none" d=" M 292.45 145.25 Q 291.9 144.7 291.2 144.55 290.45 144.7 289.7 144.65 289.15 144.85 288.75 145.25 288 146 288 147.1 288 148.2 288.75 148.95 289.5 149.7 290.6 149.7 291.7 149.7 292.45 148.95 292.5017578125 148.8982421875 292.55 148.85 293.2 148.1240234375 293.2 147.1 293.2 146.0759765625 292.55 145.35 292.5017578125 145.3017578125 292.45 145.25 Z"/> <path fill="url(#Gradient_45)" stroke="none" d=" M 251.2 41.4 Q 250.5279296875 41.849609375 249.9 42.55 L 282.2 138.4 297.9 138.4 Q 297.9310546875 138.30859375 297.9 138.2 L 256.7 41.5 Q 256.0556640625 41.113671875 255.4 40.9 253.1525390625 40.062890625 251.2 41.4 Z"/> <path fill="url(#Gradient_46)" stroke="none" d=" M 193.7 40.45 Q 193.6572265625 40.19921875 193.55 40 193.07421875 38.9697265625 191.2 40 L 179.3 73.05 193.7 40.45 Z"/> <path fill="url(#Gradient_47)" stroke="none" d=" M 198.05 41.2 Q 197.860546875 40.4404296875 197.45 40.05 197.4240234375 40.0244140625 197.4 40 196.5107421875 39.2048828125 194.65 40 L 194.6 40 Q 194.1759765625 40.2064453125 193.7 40.45 L 179.3 73.05 155.75 138.25 198.05 41.2 Z"/> <path fill="url(#Gradient_48)" stroke="none" d=" M 239 161.3 L 239 166.15 240.45 166.15 240 161.1 Q 239.6 161.3 239.1 161.3 239.05 161.3 239 161.3 Z"/> <path fill="url(#Gradient_49)" stroke="none" d=" M 239 161.3 Q 238.5 161.3 238.05 161 L 237.4 166.15 239 166.15 239 161.3 Z"/> <path fill="url(#Gradient_50)" stroke="none" d=" M 240.85 160.2 Q 240.7 160.5 240.4 160.75 240.2 160.95 240 161.1 L 240.45 166.15 241.9 166.1 240.85 160.2 Z"/> <path fill="url(#Gradient_51)" stroke="none" d=" M 239.1 157.6 Q 239.7 157.55 240.1 157.2 240.5 156.8 240.5 156.2 240.5 155.65 240.1 155.2 239.7 154.85 239.1 154.8 238.5 154.85 238.1 155.2 237.7 155.65 237.7 156.2 237.7 156.8 238.1 157.2 238.5 157.55 239.1 157.6 Z"/> <path fill="url(#Gradient_52)" stroke="none" d=" M 237.8 160.75 Q 237.3 160.3 237.25 159.7 L 236.25 166.2 237.4 166.15 238.05 161 Q 237.9 160.9 237.8 160.75 Z"/> <path fill="url(#Gradient_53)" stroke="none" d=" M 237.25 159.45 Q 237.25 159.55 237.25 159.7 237.3 160.3 237.8 160.75 237.9 160.9 238.05 161 238.5 161.3 239 161.3 239.05 161.3 239.1 161.3 239.6 161.3 240 161.1 240.2 160.95 240.4 160.75 240.7 160.5 240.85 160.2 240.95 159.85 240.95 159.45 240.95 158.7 240.4 158.15 239.9 157.6 239.1 157.6 238.3 157.6 237.8 158.15 237.25 158.7 237.25 159.45 Z"/> <path fill="url(#Gradient_54)" stroke="none" d=" M 240.1 152.45 Q 239.70625 152.05625 239.25 152.05 L 239.05 152.05 Q 238.49375 152.05625 238.1 152.45 237.7 152.85 237.7 153.45 237.7 154 238.1 154.4 238.5 154.8 239.1 154.8 239.7 154.8 240.1 154.4 240.5 154 240.5 153.45 240.5 152.85 240.1 152.45 Z"/> <path fill="url(#Gradient_55)" stroke="none" d=" M 239.25 149.3 L 239.05 149.3 Q 238.49375 149.30625 238.1 149.7 237.7 150.1 237.7 150.7 237.7 151.25 238.1 151.65 238.49375 152.04375 239.05 152.05 L 239.25 152.05 Q 239.70625 152.04375 240.1 151.65 240.5 151.25 240.5 150.7 240.5 150.1 240.1 149.7 239.70625 149.30625 239.25 149.3 Z"/> <path fill="url(#Gradient_56)" stroke="none" d=" M 240.1 146.95 Q 239.7 146.55 239.1 146.55 238.5 146.55 238.1 146.95 237.7 147.35 237.7 147.9 237.7 148.5 238.1 148.9 238.49375 149.29375 239.05 149.3 L 239.25 149.3 Q 239.70625 149.29375 240.1 148.9 240.5 148.5 240.5 147.9 240.5 147.35 240.1 146.95 Z"/> <path fill="url(#Gradient_57)" stroke="none" d=" M 240.1 144.15 Q 239.7 143.8 239.1 143.75 238.5 143.8 238.1 144.15 237.7 144.55 237.7 145.15 237.7 145.7 238.1 146.15 238.5 146.5 239.1 146.55 239.7 146.5 240.1 146.15 240.5 145.7 240.5 145.15 240.5 144.55 240.1 144.15 Z"/> <path fill="url(#Gradient_58)" stroke="none" d=" M 161.65 145.25 Q 161.1 144.7 160.4 144.55 159.65 144.7 158.9 144.65 158.35 144.85 157.95 145.25 157.2 146 157.2 147.1 157.2 148.2 157.95 148.95 158.7 149.7 159.8 149.7 160.9 149.7 161.65 148.95 161.85234375 148.74765625 162 148.5 161.6 147.903125 161.6 147.1 161.6 146.296875 162 145.65 161.85234375 145.45234375 161.65 145.25 Z"/> <path fill="url(#Gradient_59)" stroke="none" d=" M 284.65 145.85 Q 284.65 144.95 284.05 144.3 283.55 143.85 283 143.7 282.75 143.7 282.5 143.7 282.05 143.7 281.7 143.8 281.25 144 280.9 144.3 280.3 144.95 280.3 145.85 280.3 146.8 280.9 147.45 281.55 148.05 282.5 148.05 283.4 148.05 284.05 147.45 284.65 146.8 284.65 145.85 Z"/> <path fill="url(#Gradient_60)" stroke="none" d=" M 212.2 144.55 Q 211.45 144.7 210.7 144.65 210.15 144.85 209.75 145.25 209 146 209 147.1 209 148.2 209.75 148.95 210.5 149.7 211.6 149.7 212.7 149.7 213.45 148.95 214.2 148.2 214.2 147.1 214.2 146 213.45 145.25 212.9 144.7 212.2 144.55 Z"/> <path fill="url(#Gradient_61)" stroke="none" d=" M 261.4 40 Q 261.0794921875 40.3 260.75 40.75 L 276.1 75.05 264 40 Q 262.71640625 38.8025390625 261.4 40 Z"/> <path fill="url(#Gradient_62)" stroke="none" d=" M 260.75 40.7 Q 260.2166015625 40.4091796875 259.7 40.25 258.51953125 39.9142578125 257.55 40.6 257.1037109375 40.92265625 256.7 41.5 L 297.9 138.2 276.1 75.05 260.75 40.75 260.75 40.7 Z"/> <path fill="url(#Gradient_63)" stroke="none" d=" M 179.1 144.65 Q 178.55 144.85 178.15 145.25 177.4 146 177.4 147.1 177.4 148.2 178.15 148.95 178.9 149.7 180 149.7 181.1 149.7 181.85 148.95 182.6 148.2 182.6 147.1 182.6 146 181.85 145.25 181.3 144.7 180.6 144.55 179.85 144.7 179.1 144.65 Z"/> <path fill="url(#Gradient_64)" stroke="none" d=" M 186 145.75 Q 186 146.7 186.6 147.35 187.25 147.95 188.2 147.95 189.1 147.95 189.75 147.35 190.35 146.7 190.35 145.75 190.35 144.85 189.75 144.2 189.25 143.75 188.7 143.6 188.45 143.6 188.2 143.6 187.75 143.6 187.4 143.7 186.95 143.9 186.6 144.2 186 144.85 186 145.75 Z"/> <path fill="url(#Gradient_65)" stroke="none" d=" M 247.8 144.15 Q 247.2 144.8 247.2 145.7 247.2 146.65 247.8 147.3 248.45 147.9 249.4 147.9 250.3 147.9 250.95 147.3 251.55 146.65 251.55 145.7 251.55 144.8 250.95 144.15 250.45 143.7 249.9 143.55 249.65 143.55 249.4 143.55 248.95 143.55 248.6 143.65 248.15 143.85 247.8 144.15 Z"/> <path fill="url(#Gradient_66)" stroke="none" d=" M 272.95 145.25 Q 272.2 146 272.2 147.1 272.2 148.2 272.95 148.95 273.7 149.7 274.8 149.7 275.9 149.7 276.65 148.95 277.4 148.2 277.4 147.1 277.4 146 276.65 145.25 276.1 144.7 275.4 144.55 274.65 144.7 273.9 144.65 273.35 144.85 272.95 145.25 Z"/> </g> <g id="Layer0_0_FILL"> <path fill="url(#Gradient_67)" stroke="none" d=" M 226.5 144.65 Q 225.95 144.85 225.55 145.25 224.8 146 224.8 147.1 224.8 148.2 225.55 148.95 226.3 149.7 227.4 149.7 228.5 149.7 229.25 148.95 230 148.2 230 147.1 230 146 229.25 145.25 228.7 144.7 228 144.55 227.25 144.7 226.5 144.65 Z"/> </g> <path id="Layer3_0_1_STROKES" stroke="#000000" stroke-width="0.1" stroke-linejoin="round" stroke-linecap="round" fill="none" d=" M 171.325 102.8 Q 226.3259765625 2.811328125 281.325 102.8 M 270.4 334.8 Q 270.4 351.2 254.2 362.8 238.05 374.4 215.2 374.4 192.35 374.4 176.15 362.8 160 351.2 160 334.8 160 318.4 176.15 306.8 192.35 295.2 215.2 295.2 238.05 295.2 254.2 306.8 270.4 318.4 270.4 334.8 Z"/> <path id="Layer2_0_1_STROKES" stroke="#000000" stroke-width="0.1" stroke-linejoin="round" stroke-linecap="round" fill="none" d=" M 279.6 332.8 Q 279.6 348.2 264.25 359.1 259.5021484375 362.471484375 254.15 364.8 242.187890625 370 227.2 370 212.212109375 370 200.25 364.8 194.8978515625 362.471484375 190.15 359.1 174.8 348.2 174.8 332.8 174.8 317.4 190.15 306.5 205.5 295.6 227.2 295.6 248.9 295.6 264.25 306.5 279.6 317.4 279.6 332.8 Z"/> <path id="Layer1_0_1_STROKES" stroke="#000000" stroke-width="0.1" stroke-linejoin="round" stroke-linecap="round" fill="none" d=" M 251.2 41.4 Q 249.584375 40.7826171875 247.975 41.725 248.905859375 41.9564453125 249.9 42.55 250.5279296875 41.849609375 251.2 41.4 253.1525390625 40.062890625 255.425 40.9 256.216015625 40.0751953125 257.575 40.6 258.51953125 39.9142578125 259.725 40.275 260.3654296875 39.6427734375 261.4 40 262.71640625 38.8025390625 264 40 L 276.1 75.05 297.925 138.225 298 138.4 Q 297.9578125 138.4671875 297.925 138.525 297.5052734375 144.0193359375 295.1 144.55 M 289.7 144.65 Q 287.56484375 144.4791015625 285.425 142.475 284.21484375 143.4525390625 283 143.7 M 281.7 143.8 Q 280.2919921875 143.6806640625 278.85 142.575 277.1306640625 144.1681640625 275.4 144.55 M 273.9 144.65 Q 271.373828125 144.448046875 268.85 141.675 267.273828125 143.2294921875 265.7 143.55 M 264.4 143.65 Q 263.4611328125 143.5705078125 262.5 143.05 261.0556640625 144.22890625 259.6 144.55 M 258.1 144.65 Q 255.575390625 144.448046875 253.05 141.675 251.47421875 143.229296875 249.9 143.55 M 248.6 143.65 Q 247.6607421875 143.5703125 246.7 143.05 245.25546875 144.22890625 243.8 144.55 M 242.3 144.65 Q 240.9337890625 144.540625 239.575 143.675 239.3501953125 143.75 239.1 143.75 239.7 143.8 240.1 144.15 240.5 144.55 240.5 145.15 240.5 145.7 240.1 146.15 239.7 146.5 239.1 146.55 239.7 146.55 240.1 146.95 240.5 147.35 240.5 147.9 240.5 148.5 240.1 148.9 239.70625 149.29375 239.275 149.3 239.70625 149.30625 240.1 149.7 240.5 150.1 240.5 150.7 240.5 151.25 240.1 151.65 239.70625 152.04375 239.275 152.05 239.70625 152.05625 240.1 152.45 240.5 152.85 240.5 153.45 240.5 154 240.1 154.4 239.7 154.8 239.1 154.8 239.7 154.85 240.1 155.2 240.5 155.65 240.5 156.2 240.5 156.8 240.1 157.2 239.7 157.55 239.1 157.6 239.9 157.6 240.4 158.15 240.95 158.7 240.95 159.45 240.95 159.85 240.85 160.2 L 241.9 166.1 240.45 166.15 239 166.15 237.4 166.15 236.25 166.2 237.25 159.7 Q 237.25 159.55 237.25 159.45 237.25 158.7 237.8 158.15 238.3 157.6 239.1 157.6 238.5 157.55 238.1 157.2 237.7 156.8 237.7 156.2 237.7 155.65 238.1 155.2 238.5 154.85 239.1 154.8 238.5 154.8 238.1 154.4 237.7 154 237.7 153.45 237.7 152.85 238.1 152.45 238.49375 152.05625 239.075 152.05 238.49375 152.04375 238.1 151.65 237.7 151.25 237.7 150.7 237.7 150.1 238.1 149.7 238.49375 149.30625 239.075 149.3 238.49375 149.29375 238.1 148.9 237.7 148.5 237.7 147.9 237.7 147.35 238.1 146.95 238.5 146.55 239.1 146.55 238.5 146.5 238.1 146.15 237.7 145.7 237.7 145.15 237.7 144.55 238.1 144.15 238.5 143.8 239.1 143.75 238.5 143.75 238.1 143.35 237.813671875 143.063671875 237.725 142.7 236.6681640625 143.482421875 235.6 143.7 M 234.3 143.8 Q 232.8919921875 143.6806640625 231.45 142.575 231.3251953125 142.690625 231.2 142.8 L 231.2 196.55 Q 232.0560546875 198.190234375 232.9 199.85 239.1 212.15 244.25 225.85 248.65 237.7 252.3 250.65 255.35 261.4 257.8 272.85 260.65 286.25 262.8 300.7 266.5 325.55 255.25 337.55 254.7 338.1 254.2 338.65 250.4 342.45 246.3 345.05 237.55 350.5 227.15 350.5 216.1 350.5 207.15 345.05 202.9 342.45 199.1 338.65 198.6 338.1 198.05 337.55 186.8 325.55 190.5 300.7 192.65 286.25 195.55 272.85 198 261.4 201.05 250.65 204.7 237.7 209.15 225.85 214.25 212.15 220.45 199.85 221.06640625 198.6173828125 221.7 197.4 L 221.7 146.425 M 218.8 143.85 Q 217.298046875 143.72265625 215.775 142.475 213.9849609375 144.15625 212.2 144.55 M 210.7 144.65 Q 208.7078125 144.490625 206.725 142.725 205.3578125 143.9234375 204 144.2 M 202.7 144.3 Q 201.146484375 144.168359375 199.575 142.85 197.9826171875 144.2009765625 196.4 144.55 M 194.9 144.65 Q 192.8482421875 144.4859375 190.8 142.625 189.7482421875 143.3865234375 188.7 143.6 M 187.4 143.7 Q 185.8865234375 143.5716796875 184.35 142.3 182.4732421875 144.13671875 180.6 144.55 M 179.1 144.65 Q 176.9216796875 144.47578125 174.75 142.4 173.5716796875 143.311328125 172.4 143.55 M 171.1 143.65 Q 169.7359375 143.534375 168.35 142.5 166.5751953125 144.1583984375 164.8 144.55 M 158.9 144.65 Q 156.145703125 144.4296875 155.775 138.5 155.731640625 138.4484375 155.7 138.4 L 155.75 138.275 179.3 73.05 191.2 40 Q 193.07421875 38.9697265625 193.575 40 194.1125 39.7314453125 194.65 40 196.5107421875 39.2048828125 197.4 40 198.6951171875 39.3962890625 199.425 40.3 199.76640625 40.1544921875 200.1 40.075 L 201.55 40.075 Q 202.203125 40.2626953125 202.8 40.775 204.463671875 40.20859375 206.125 41.2 208.173828125 40.7314453125 209.75 41.6 211.5904296875 41.2564453125 212.825 41.875 213.8513671875 41.5578125 215 42.05 217.6880859375 41.3521484375 219.85 42.35 220.4525390625 42.2931640625 221.025 42.4 222.9453125 41.5029296875 225.25 42.525 225.383984375 42.4876953125 225.525 42.45 226.648046875 42.1556640625 227.175 42.475 227.2373046875 42.5126953125 227.3 42.55 228.831640625 41.6111328125 230.35 42.575 232.1349609375 41.584375 233.775 42.525 235.662109375 41.516796875 236.95 42.45 239.0455078125 41.36484375 241.275 42.25 243.3615234375 41.1404296875 244.85 42 246.3115234375 41.2958984375 247.975 41.725 M 243.1 43.275 Q 243.9333984375 42.420703125 244.85 42 M 259.725 40.275 Q 260.2166015625 40.4091796875 260.75 40.725 L 260.75 40.75 Q 261.0794921875 40.3 261.4 40 M 255.425 40.9 Q 256.0556640625 41.113671875 256.7 41.5 257.1037109375 40.92265625 257.575 40.6 M 260.75 40.75 L 276.1 75.05 M 202.8 40.775 Q 203.362109375 41.272265625 203.875 42.05 205.0591796875 41.4509765625 206.125 41.2 M 209.75 41.6 Q 210.595703125 42.0599609375 211.3 42.9 212.0255859375 42.1357421875 212.825 41.875 M 219.85 42.35 Q 218.4849609375 42.462109375 216.95 43.375 215.9359375 42.4482421875 215 42.05 M 216.95 43.375 L 203.2 138.4 219 138.4 223.5 43.725 Q 222.35703125 42.6384765625 221.025 42.4 M 230.35 42.575 Q 229.5681640625 43.0048828125 228.75 43.825 227.8185546875 42.9130859375 227.3 42.55 M 228.75 43.825 L 234.8 138.4 250.6 138.4 235.2 43.725 Q 234.50546875 42.9451171875 233.775 42.525 M 223.5 43.725 Q 224.294921875 42.8712890625 225.25 42.525 M 235.2 43.725 Q 236.066796875 42.9037109375 236.95 42.45 M 197.4 40 Q 197.4240234375 40.0244140625 197.45 40.05 197.860546875 40.4404296875 198.05 41.2 198.758203125 40.6134765625 199.425 40.3 M 193.7 40.475 Q 194.1759765625 40.2064453125 194.6 40.025 L 194.65 40 M 193.575 40 Q 193.6572265625 40.19921875 193.7 40.475 L 179.3 73.05 M 202.7 144.3 Q 203.05 144.2 203.5 144.2 203.75 144.2 204 144.2 M 210.7 144.65 Q 211.45 144.7 212.2 144.55 211.9 144.5 211.6 144.5 211.1 144.5 210.7 144.65 Z M 203.2 138.4 Q 204.9578125 141.1890625 206.725 142.725 M 219 138.4 Q 220.3490234375 140.5404296875 221.7 141.95 222.05 142.31015625 222.4 142.625 224.4484375 144.4859375 226.5 144.65 226.9 144.5 227.4 144.5 227.7 144.5 228 144.55 229.605078125 144.1958984375 231.2 142.8 M 221.7 143.1 L 221.7 145.4 Q 221.75 145.6404296875 221.75 145.9 221.75 146.1740234375 221.7 146.425 L 221.7 145.4 Q 221.576953125 144.8125 221.15 144.35 220.65 143.9 220.1 143.75 219.85 143.75 219.6 143.75 219.15 143.75 218.8 143.85 M 220.1 143.75 Q 220.89921875 143.587109375 221.7 143.1 L 221.7 141.95 M 215.775 142.475 Q 217.3849609375 140.9650390625 219 138.4 L 234.8 138.4 Q 236.259765625 140.716015625 237.725 142.175 237.8703125 142.3296875 238.025 142.475 238.795703125 143.196875 239.575 143.675 M 226.5 144.65 Q 227.25 144.7 228 144.55 M 237.725 142.7 Q 237.7 142.55625 237.7 142.4 237.7 142.2833984375 237.725 142.175 M 234.3 143.8 Q 234.65 143.7 235.1 143.7 235.35 143.7 235.6 143.7 M 231.45 142.575 Q 233.1306640625 141.0513671875 234.8 138.4 M 163.3 144.65 Q 162.31484375 144.57109375 161.325 144.1 160.9099609375 144.4375 160.4 144.55 M 163.3 144.65 Q 163.7 144.5 164.2 144.5 164.5 144.5 164.8 144.55 164.05 144.7 163.3 144.65 Z M 171.1 143.65 Q 171.45 143.55 171.9 143.55 172.15 143.55 172.4 143.55 M 168.35 142.5 Q 169.9751953125 140.9806640625 171.6 138.4 L 155.75 138.4 Q 155.766796875 138.4498046875 155.775 138.5 158.5953125 142.8013671875 161.325 144.1 M 179.1 144.65 Q 179.85 144.7 180.6 144.55 180.3 144.5 180 144.5 179.5 144.5 179.1 144.65 Z M 171.6 138.4 Q 173.1716796875 140.89375 174.75 142.4 M 187.4 143.7 Q 187.75 143.6 188.2 143.6 188.45 143.6 188.7 143.6 M 190.8 142.625 Q 189.0982421875 141.09453125 187.4 138.4 185.8732421875 140.8248046875 184.35 142.3 M 187.4 138.4 L 171.6 138.4 203.875 42.05 M 194.9 144.65 Q 195.3 144.5 195.8 144.5 196.1 144.5 196.4 144.55 195.65 144.7 194.9 144.65 Z M 239.275 149.3 L 239.075 149.3 M 239.275 152.05 L 239.075 152.05 M 238.05 161 Q 237.9 160.9 237.8 160.75 237.3 160.3 237.25 159.7 M 240.85 160.2 Q 240.7 160.5 240.4 160.75 240.2 160.95 240 161.1 L 240.45 166.15 M 239 161.3 Q 238.5 161.3 238.05 161 L 237.4 166.15 M 239 161.3 L 239 166.15 M 240 161.1 Q 239.6 161.3 239.1 161.3 239.05 161.3 239 161.3 M 221.7 197.4 Q 224.07890625 192.780078125 226.65 188.35 228.9857421875 192.374609375 231.2 196.55 M 199.575 142.85 Q 201.3826171875 141.2865234375 203.2 138.4 L 187.4 138.4 211.3 42.9 M 292.35 144.175 Q 292.8984375 144.5939453125 293.6 144.65 294 144.5 294.5 144.5 294.8 144.5 295.1 144.55 294.35 144.7 293.6 144.65 M 289.7 144.65 Q 290.1 144.5 290.6 144.5 290.9 144.5 291.2 144.55 291.7728515625 144.4236328125 292.35 144.175 295.1306640625 142.909375 297.925 138.525 297.9203125 138.4671875 297.925 138.4 L 282.2 138.4 Q 283.81484375 140.962109375 285.425 142.475 M 289.7 144.65 Q 290.45 144.7 291.2 144.55 M 298 138.4 L 297.925 138.4 Q 297.9310546875 138.30859375 297.925 138.225 L 256.7 41.5 M 246.7 143.05 Q 248.03046875 141.9904296875 249.35 140.225 249.79765625 139.6287109375 250.25 138.95 250.42265625 138.681640625 250.6 138.4 L 266.4 138.4 243.1 43.275 Q 242.1740234375 42.5970703125 241.275 42.25 M 250.6 138.4 Q 250.77734375 138.6814453125 250.95 138.95 251.9994140625 140.53828125 253.05 141.675 M 242.3 144.65 Q 242.7 144.5 243.2 144.5 243.5 144.5 243.8 144.55 243.05 144.7 242.3 144.65 Z M 248.6 143.65 Q 248.95 143.55 249.4 143.55 249.65 143.55 249.9 143.55 M 258.1 144.65 Q 258.5 144.5 259 144.5 259.3 144.5 259.6 144.55 258.85 144.7 258.1 144.65 Z M 266.4 138.4 Q 266.5763671875 138.6798828125 266.75 138.95 266.8513671875 139.1017578125 266.95 139.25 267.898828125 140.6486328125 268.85 141.675 M 262.5 143.05 Q 264.28046875 141.630859375 266.05 138.95 266.2228515625 138.6814453125 266.4 138.4 L 282.2 138.4 249.9 42.55 M 264.4 143.65 Q 264.75 143.55 265.2 143.55 265.45 143.55 265.7 143.55 M 273.9 144.65 Q 274.65 144.7 275.4 144.55 275.1 144.5 274.8 144.5 274.3 144.5 273.9 144.65 Z M 281.7 143.8 Q 282.05 143.7 282.5 143.7 282.75 143.7 283 143.7 M 278.85 142.575 Q 280.5306640625 141.0513671875 282.2 138.4 M 155.75 138.275 Q 155.753515625 138.3373046875 155.75 138.4 L 155.7 138.4 M 158.9 144.65 Q 159.3 144.5 159.8 144.5 160.1 144.5 160.4 144.55 159.65 144.7 158.9 144.65 Z M 155.75 138.275 L 198.05 41.2"/> </defs> <g transform="matrix( 1, 0, 0, 1, 0,0) "> <use xlink:href="#Layer3_0_FILL"/> <use xlink:href="#Layer3_0_1_STROKES"/> </g> <g transform="matrix( 1, 0, 0, 1, 90.35,52.35) "> <g transform="matrix( 1, 0, 0, 1, 0,0) "> <use filter="url(#Filter_1)" xlink:href="#Symbol_1_0_Layer0_0_FILL"/> </g> </g> <g transform="matrix( 1, 0, 0, 1, 0,0) "> <use xlink:href="#Layer2_0_FILL"/> <use xlink:href="#Layer2_0_1_STROKES"/> </g> <g transform="matrix( 1, 0, 0, 1, 0,0) "> <use xlink:href="#Layer1_0_FILL"/> <use xlink:href="#Layer1_0_1_STROKES"/> </g> <g transform="matrix( 1, 0, 0, 1, 0,0) "> <use xlink:href="#Layer0_0_FILL"/> </g> </svg>